<svg xmlns="http://www.w3.org/2000/svg" xmlns:xlink="http://www.w3.org/1999/xlink" width="500" zoomAndPan="magnify" viewBox="0 0 375 374.999991" height="500" preserveAspectRatio="xMidYMid meet" version="1.0"><defs><g/><clipPath id="8d8d7feb61"><path d="M 41 0 L 336.941406 0 L 336.941406 375 L 41 375 Z M 41 0 " clip-rule="nonzero"/></clipPath></defs><g clip-path="url(#8d8d7feb61)"><path fill="#171710" d="M 137.777344 365.085938 C 108.363281 361.046875 76.34375 354.007812 58.683594 331.417969 C 49.4375 319.554688 45.355469 304.742188 43.289062 290.121094 C 39.941406 266.546875 41.269531 242.625 42.550781 218.851562 C 45.847656 158.609375 49.140625 98.3125 56.324219 38.316406 C 57.847656 25.617188 61.046875 10.898438 73.242188 5.386719 C 78.0625 3.222656 83.621094 2.925781 88.984375 2.730469 C 129.023438 1.105469 169.0625 0.316406 209.152344 0.417969 C 233.550781 0.515625 258.683594 1.007812 281.164062 9.914062 C 332.121094 30.097656 330.449219 77.542969 331.628906 121.644531 C 333.105469 176.476562 334.632812 231.355469 336.105469 286.183594 C 336.796875 310.007812 336.941406 335.503906 323.023438 355.386719 C 318.152344 362.425781 311.363281 368.578125 303.003906 371.53125 C 296.164062 373.992188 288.640625 374.140625 281.3125 374.238281 C 233.351562 374.683594 185.296875 371.628906 137.777344 365.085938 Z M 137.777344 365.085938 " fill-opacity="1" fill-rule="nonzero"/></g><g fill="#f3f5f9" fill-opacity="1"><g transform="translate(88.429872, 162.13995)"><g><path d="M 15.546875 -12.792969 C 43.074219 14.574219 95.539062 -4.210938 83.71875 -46.3125 C 79.992188 -59.429688 53.921875 -68.980469 46.796875 -54.570312 C 44.53125 -50.035156 44.691406 -41.617188 48.253906 -37.890625 C 51.332031 -34.492188 59.914062 -35.949219 56.027344 -29.632812 C 52.949219 -24.773438 43.722656 -26.394531 39.671875 -28.335938 C 32.0625 -32.222656 28.824219 -40.96875 29.148438 -49.226562 C 29.957031 -65.417969 42.425781 -77.726562 57.160156 -82.097656 C 68.496094 -85.5 69.953125 -97.804688 60.886719 -106.710938 C 47.605469 -119.503906 24.453125 -97.644531 16.679688 -87.441406 C 0.648438 -66.714844 -4.535156 -32.871094 15.546875 -12.792969 Z M 15.546875 -12.792969 "/></g></g></g><g fill="#f3f5f9" fill-opacity="1"><g transform="translate(209.703343, 162.13995)"><g><path d="M 26.878906 -0.324219 C 36.917969 -0.808594 46.960938 -0.648438 56.835938 -1.132812 C 65.09375 -1.621094 71.25 -2.753906 74.488281 -10.847656 C 76.429688 -16.191406 77.5625 -25.910156 72.21875 -29.957031 C 66.230469 -34.328125 56.835938 -32.386719 50.035156 -32.710938 C 43.882812 -33.035156 28.015625 -38.054688 37.242188 -46.636719 C 42.75 -51.816406 51.332031 -45.664062 57.808594 -47.445312 C 64.933594 -49.550781 66.554688 -57.648438 65.742188 -64.285156 C 65.257812 -69.953125 63.3125 -73.191406 57.808594 -75.296875 C 52.464844 -77.238281 41.292969 -73.675781 37.082031 -76.753906 C 31.414062 -80.800781 36.597656 -88.414062 40.644531 -89.222656 C 46.796875 -90.679688 53.4375 -86.46875 59.914062 -89.0625 C 65.582031 -91.328125 68.496094 -96.671875 67.6875 -102.824219 C 66.554688 -111.40625 59.429688 -112.863281 51.980469 -113.996094 C 40.96875 -115.617188 11.820312 -121.121094 6.964844 -107.519531 C 4.859375 -101.691406 5.992188 -93.59375 5.667969 -87.605469 C 5.34375 -76.753906 4.859375 -65.90625 4.371094 -55.054688 C 3.886719 -45.824219 3.5625 -36.597656 3.078125 -27.367188 C 2.753906 -20.078125 0.648438 -9.554688 6.476562 -3.886719 C 11.820312 1.296875 20.402344 -0.160156 26.878906 -0.324219 Z M 26.878906 -0.324219 "/></g></g></g><g fill="#f3f5f9" fill-opacity="1"><g transform="translate(88.094717, 296.201846)"><g><path d="M 7.609375 -3.078125 C 22.992188 13.277344 30.117188 -40.96875 31.738281 -47.605469 C 38.378906 -36.757812 64.933594 18.621094 79.667969 -13.117188 C 88.898438 -32.710938 86.308594 -65.742188 83.230469 -85.824219 C 81.773438 -96.671875 70.277344 -101.207031 62.34375 -92.945312 C 54.085938 -84.203125 57.484375 -67.039062 58.132812 -56.511719 C 51.65625 -66.554688 48.09375 -77.5625 41.941406 -87.441406 C 37.082031 -95.539062 26.554688 -102.339844 17.003906 -97.644531 C 1.78125 -90.03125 4.210938 -55.703125 3.402344 -41.292969 C 2.914062 -31.253906 0.160156 -11.171875 7.609375 -3.078125 Z M 7.609375 -3.078125 "/></g></g></g><g fill="#f3f5f9" fill-opacity="1"><g transform="translate(210.015805, 296.201846)"><g><path d="M 26.878906 -0.324219 C 36.917969 -0.808594 46.960938 -0.648438 56.835938 -1.132812 C 65.09375 -1.621094 71.25 -2.753906 74.488281 -10.847656 C 76.429688 -16.191406 77.5625 -25.910156 72.21875 -29.957031 C 66.230469 -34.328125 56.835938 -32.386719 50.035156 -32.710938 C 43.882812 -33.035156 28.015625 -38.054688 37.242188 -46.636719 C 42.75 -51.816406 51.332031 -45.664062 57.808594 -47.445312 C 64.933594 -49.550781 66.554688 -57.648438 65.742188 -64.285156 C 65.257812 -69.953125 63.3125 -73.191406 57.808594 -75.296875 C 52.464844 -77.238281 41.292969 -73.675781 37.082031 -76.753906 C 31.414062 -80.800781 36.597656 -88.414062 40.644531 -89.222656 C 46.796875 -90.679688 53.4375 -86.46875 59.914062 -89.0625 C 65.582031 -91.328125 68.496094 -96.671875 67.6875 -102.824219 C 66.554688 -111.40625 59.429688 -112.863281 51.980469 -113.996094 C 40.96875 -115.617188 11.820312 -121.121094 6.964844 -107.519531 C 4.859375 -101.691406 5.992188 -93.59375 5.667969 -87.605469 C 5.34375 -76.753906 4.859375 -65.90625 4.371094 -55.054688 C 3.886719 -45.824219 3.5625 -36.597656 3.078125 -27.367188 C 2.753906 -20.078125 0.648438 -9.554688 6.476562 -3.886719 C 11.820312 1.296875 20.402344 -0.160156 26.878906 -0.324219 Z M 26.878906 -0.324219 "/></g></g></g></svg>